<svg id="Layer_1" data-name="Layer 1" xmlns="http://www.w3.org/2000/svg" viewBox="0 0 615.2 604.8"><defs><style>.cls-1{fill:#c2c2c2;}.cls-2{fill:#e1e1e1;}.cls-3{fill:#636363;}</style></defs><title>CCB-logo</title><path class="cls-1" d="M795,324.2,500,198.1,205,324.2v.4L500,450.7,795,324.6ZM650.2,343.3c-7,8.1-18.4,15.6-34.2,22.6-27.5,12.2-59.9,18-96.9,17.4s-70.6-7.5-100.5-20.6l-6.9-3q-44.7-19.5-46.6-43.4c-1.4-15.8,11.9-29.7,39.7-41.6A220.2,220.2,0,0,1,456.2,260a285.41,285.41,0,0,1,54.1-3.8l40.3,17.2-30.3,13.1-31.4-9.9a124.7,124.7,0,0,0-24.7,2.5A118.47,118.47,0,0,0,439,287c-17.9,7.7-25.2,16.4-22,26.2s15.2,19.2,36.1,28.3l7.2,3.1a195.34,195.34,0,0,0,65.6,15.9q34.2,2.25,60.4-9.3c8.1-3.5,14.3-7.3,18.6-11.3s6.3-7.6,5.8-11l-23.3-13.7L617.7,302l40.9,17.5C659.9,327.3,657.2,335.2,650.2,343.3Z" transform="translate(-192.4 -198.1)"/><path class="cls-2" d="M192.4,676.2,488.8,802.9V470.3L192.4,343.6Zm63.9-142.7q0-50.25,26.2-71.4t67.8-3.5a148.24,148.24,0,0,1,43,28A170.55,170.55,0,0,1,425,525.9v45.7l-30.6-13L390.2,526a77.34,77.34,0,0,0-15.3-17.3,81.24,81.24,0,0,0-21.8-13.2q-26.85-11.4-41.2,4.3c-9.6,10.5-14.5,27.5-14.5,50.9v8.1q0,35.25,14.4,63.3t40.6,39.3c8.1,3.4,15.5,5.3,22.2,5.5s11.9-1.2,15.6-4.2l4.2-29,30.6,13v45.7c-8.3,7.3-18.8,11.4-31.6,12.3s-27.2-2-43.1-8.7q-41.25-17.55-67.7-61a177.18,177.18,0,0,1-26.4-93.8v-7.7Z" transform="translate(-192.4 -198.1)"/><path class="cls-3" d="M693.2,532.6a41.93,41.93,0,0,0,8.9-26.2c0-10.8-3-17.4-9-19.9s-14.9-1.2-26.8,3.9l-28.2,12.2v61.5l29.7-12.9C678.7,546.5,687.2,540.3,693.2,532.6Z" transform="translate(-192.4 -198.1)"/><path class="cls-3" d="M511.2,470.3V802.9L807.6,676.2V343.6ZM731.3,641.8q-19.5,25.65-55.2,41.1L575,726.8v-28l21.9-14.3v-167L575,522.2V494.1l21.9-9.5,69.5-30.1c24.2-10.5,43.1-13.3,56.6-8.6s20.3,17.8,20.3,39a73.32,73.32,0,0,1-7.6,32.1,86.88,86.88,0,0,1-22,28.6c12.3-2.4,21.6,0,27.8,7.1s9.2,17.1,9.2,30Q750.85,616.15,731.3,641.8Z" transform="translate(-192.4 -198.1)"/><path class="cls-3" d="M702.3,577.6c-4.9-3.9-12.6-3.6-23.2,1L638,596.4v67.1L676,647c10.9-4.7,19.3-11,25-18.9a46,46,0,0,0,8.6-27.6C709.7,589.2,707.2,581.5,702.3,577.6Z" transform="translate(-192.4 -198.1)"/></svg>