<svg xmlns="http://www.w3.org/2000/svg" width="59" height="58" viewBox="0 0 59 58">
  <metadata><?xpacket begin="﻿" id="W5M0MpCehiHzreSzNTczkc9d"?>
<x:xmpmeta xmlns:x="adobe:ns:meta/" x:xmptk="Adobe XMP Core 5.6-c138 79.159824, 2016/09/14-01:09:01        ">
   <rdf:RDF xmlns:rdf="http://www.w3.org/1999/02/22-rdf-syntax-ns#">
      <rdf:Description rdf:about=""/>
   </rdf:RDF>
</x:xmpmeta>
                                                                                                    
                                                                                                    
                                                                                                    
                                                                                                    
                                                                                                    
                                                                                                    
                                                                                                    
                                                                                                    
                                                                                                    
                                                                                                    
                                                                                                    
                                                                                                    
                                                                                                    
                                                                                                    
                                                                                                    
                                                                                                    
                                                                                                    
                                                                                                    
                                                                                                    
                                                                                                    
                           
<?xpacket end="w"?></metadata>
<defs>
    <style>
      .cls-1 {
        fill: #fff;
        fill-rule: evenodd;
      }
    </style>
  </defs>
  <path id="top" class="cls-1" d="M298.025,43.08a4.008,4.008,0,0,0,.853-2.516,1.843,1.843,0,0,0-.86-1.911,3.477,3.477,0,0,0-2.566.377L292.743,40.2v5.9l2.844-1.233A6.018,6.018,0,0,0,298.025,43.08Zm-17.45-5.974V69L309,56.85v-31.9ZM301.682,53.55a12.924,12.924,0,0,1-5.3,3.944l-9.7,4.205V59.016l2.1-1.37V41.628l-2.1.451v-2.7l2.1-.91,6.664-2.889q3.48-1.509,5.431-.822t1.95,3.738a7.149,7.149,0,0,1-.724,3.081A8.454,8.454,0,0,1,300,44.322a2.622,2.622,0,0,1,2.662.685,4.268,4.268,0,0,1,.887,2.88A9.1,9.1,0,0,1,301.682,53.55ZM298.9,47.4q-0.7-.561-2.221.1L292.743,49.2V55.64l3.643-1.58a5.669,5.669,0,0,0,2.4-1.814,4.379,4.379,0,0,0,.826-2.65A2.718,2.718,0,0,0,298.9,47.4ZM250,56.85L278.425,69v-31.9L250,24.955v31.9Zm6.121-13.69q0-4.82,2.515-6.852t6.5-.335a14.07,14.07,0,0,1,4.123,2.69,16.8,16.8,0,0,1,3.042,3.765v4.379l-2.934-1.248-0.4-3.122a7.64,7.64,0,0,0-1.467-1.658,8.042,8.042,0,0,0-2.089-1.269q-2.57-1.093-3.954.416t-1.386,4.884v0.776a13.168,13.168,0,0,0,1.379,6.076,7.727,7.727,0,0,0,3.893,3.77,5.991,5.991,0,0,0,2.13.526,2.192,2.192,0,0,0,1.494-.4l0.4-2.777,2.934,1.248v4.379a5.009,5.009,0,0,1-3.035,1.18,8.975,8.975,0,0,1-4.13-.837,13.967,13.967,0,0,1-6.49-5.848,17.026,17.026,0,0,1-2.528-9V43.16ZM307.8,23.092L279.5,11l-28.295,12.1v0.036l28.295,12.1,28.3-12.1V23.092ZM293.908,24.92a9.23,9.23,0,0,1-3.282,2.171,21.939,21.939,0,0,1-9.29,1.665,24.883,24.883,0,0,1-9.643-1.974l-0.664-.29q-4.281-1.87-4.473-4.16t3.805-3.989a21.067,21.067,0,0,1,4.933-1.41,27.748,27.748,0,0,1,5.19-.365l3.867,1.654-2.908,1.259-3.011-.946a12.573,12.573,0,0,0-2.372.237,11.788,11.788,0,0,0-2.419.753q-2.571,1.107-2.112,2.51t3.46,2.712l0.69,0.3a18.746,18.746,0,0,0,6.29,1.523,12.249,12.249,0,0,0,5.8-.891,6.53,6.53,0,0,0,1.781-1.08,1.3,1.3,0,0,0,.558-1.051l-2.236-1.31,2.906-1.27,3.92,1.676A2.673,2.673,0,0,1,293.908,24.92Z" transform="translate(-250 -11)"/>
</svg>
